<svg width="104" height="52" viewBox="0 0 104 52" fill="none" xmlns="http://www.w3.org/2000/svg">
<g opacity="0.5">
<rect width="104" height="52" rx="8" fill="#212121"/>
<path d="M36.864 32.112C36.1173 32.112 35.4453 31.984 34.848 31.728C34.2507 31.4613 33.7813 31.088 33.44 30.608C33.0987 30.128 32.928 29.568 32.928 28.928H34.88C34.9227 29.408 35.1093 29.8027 35.44 30.112C35.7813 30.4213 36.256 30.576 36.864 30.576C37.4933 30.576 37.984 30.4267 38.336 30.128C38.688 29.8187 38.864 29.424 38.864 28.944C38.864 28.5707 38.752 28.2667 38.528 28.032C38.3147 27.7973 38.0427 27.616 37.712 27.488C37.392 27.36 36.944 27.2213 36.368 27.072C35.6427 26.88 35.0507 26.688 34.592 26.496C34.144 26.2933 33.76 25.984 33.44 25.568C33.12 25.152 32.96 24.5973 32.96 23.904C32.96 23.264 33.12 22.704 33.44 22.224C33.76 21.744 34.208 21.376 34.784 21.12C35.36 20.864 36.0267 20.736 36.784 20.736C37.8613 20.736 38.7413 21.008 39.424 21.552C40.1173 22.0853 40.5013 22.8213 40.576 23.76H38.56C38.528 23.3547 38.336 23.008 37.984 22.72C37.632 22.432 37.168 22.288 36.592 22.288C36.0693 22.288 35.6427 22.4213 35.312 22.688C34.9813 22.9547 34.816 23.3387 34.816 23.84C34.816 24.1813 34.9173 24.464 35.12 24.688C35.3333 24.9013 35.6 25.072 35.92 25.2C36.24 25.328 36.6773 25.4667 37.232 25.616C37.968 25.8187 38.5653 26.0213 39.024 26.224C39.4933 26.4267 39.888 26.7413 40.208 27.168C40.5387 27.584 40.704 28.144 40.704 28.848C40.704 29.4133 40.5493 29.9467 40.24 30.448C39.9413 30.9493 39.4987 31.3547 38.912 31.664C38.336 31.9627 37.6533 32.112 36.864 32.112ZM42.2483 27.552C42.2483 26.6667 42.4296 25.8827 42.7923 25.2C43.1656 24.5173 43.6669 23.9893 44.2963 23.616C44.9363 23.232 45.6403 23.04 46.4083 23.04C47.1016 23.04 47.7043 23.1787 48.2163 23.456C48.7389 23.7227 49.1549 24.0587 49.4643 24.464V23.184H51.3043V32H49.4643V30.688C49.1549 31.104 48.7336 31.4507 48.2003 31.728C47.6669 32.0053 47.0589 32.144 46.3763 32.144C45.6189 32.144 44.9256 31.952 44.2963 31.568C43.6669 31.1733 43.1656 30.6293 42.7923 29.936C42.4296 29.232 42.2483 28.4373 42.2483 27.552ZM49.4643 27.584C49.4643 26.976 49.3363 26.448 49.0803 26C48.8349 25.552 48.5096 25.2107 48.1043 24.976C47.6989 24.7413 47.2616 24.624 46.7923 24.624C46.3229 24.624 45.8856 24.7413 45.4803 24.976C45.0749 25.2 44.7443 25.536 44.4883 25.984C44.2429 26.4213 44.1203 26.944 44.1203 27.552C44.1203 28.16 44.2429 28.6933 44.4883 29.152C44.7443 29.6107 45.0749 29.9627 45.4803 30.208C45.8963 30.4427 46.3336 30.56 46.7923 30.56C47.2616 30.56 47.6989 30.4427 48.1043 30.208C48.5096 29.9733 48.8349 29.632 49.0803 29.184C49.3363 28.7253 49.4643 28.192 49.4643 27.584ZM57.108 30.368L59.604 23.184H61.54L58.18 32H56.004L52.66 23.184H54.612L57.108 30.368ZM70.9988 27.376C70.9988 27.7067 70.9774 28.0053 70.9348 28.272H64.1988C64.2521 28.976 64.5134 29.5413 64.9828 29.968C65.4521 30.3947 66.0281 30.608 66.7108 30.608C67.6921 30.608 68.3854 30.1973 68.7908 29.376H70.7587C70.4921 30.1867 70.0068 30.8533 69.3028 31.376C68.6094 31.888 67.7454 32.144 66.7108 32.144C65.8681 32.144 65.1108 31.9573 64.4388 31.584C63.7774 31.2 63.2548 30.6667 62.8708 29.984C62.4974 29.2907 62.3108 28.4907 62.3108 27.584C62.3108 26.6773 62.4921 25.8827 62.8548 25.2C63.2281 24.5067 63.7454 23.9733 64.4068 23.6C65.0788 23.2267 65.8468 23.04 66.7108 23.04C67.5428 23.04 68.2841 23.2213 68.9348 23.584C69.5854 23.9467 70.0921 24.4587 70.4548 25.12C70.8174 25.7707 70.9988 26.5227 70.9988 27.376ZM69.0948 26.8C69.0841 26.128 68.8441 25.5893 68.3748 25.184C67.9054 24.7787 67.3241 24.576 66.6308 24.576C66.0014 24.576 65.4628 24.7787 65.0148 25.184C64.5668 25.5787 64.3001 26.1173 64.2148 26.8H69.0948Z" fill="#FCF5E5"/>
</g>
</svg>
